<svg width="24" height="25" viewBox="0 0 24 25" fill="none" xmlns="http://www.w3.org/2000/svg">
<mask id="mask0_515_113" style="mask-type:luminance" maskUnits="userSpaceOnUse" x="0" y="0" width="24" height="25">
<path d="M0.25 0.594238H24V24.3442H0.25V0.594238Z" fill="white"/>
</mask>
<g mask="url(#mask0_515_113)">
<path d="M14.3625 0.769384L13.65 0.669383C11.5087 0.360206 9.32356 0.666078 7.34942 1.55134C5.37528 2.4366 3.69345 3.86478 2.5 5.66938C1.23019 7.39436 0.473232 9.44281 0.316224 11.579C0.159217 13.7152 0.608545 15.8523 1.6125 17.7444C1.71525 17.934 1.77921 18.1422 1.80068 18.3568C1.82214 18.5714 1.80066 18.7882 1.7375 18.9944C1.225 20.7569 0.75 22.5319 0.25 24.3944L0.875 24.2069C2.5625 23.7569 4.25 23.3069 5.9375 22.8944C6.29368 22.8203 6.66389 22.8552 7 22.9944C8.514 23.7333 10.1685 24.1398 11.8526 24.1866C13.5366 24.2335 15.2112 23.9195 16.7639 23.2659C18.3166 22.6123 19.7116 21.6341 20.8551 20.397C21.9987 19.1599 22.8644 17.6925 23.3942 16.0933C23.924 14.4941 24.1055 12.8001 23.9267 11.1249C23.7479 9.44972 23.2128 7.83218 22.3574 6.38083C21.502 4.92947 20.3461 3.67788 18.9671 2.71004C17.5882 1.7422 16.0182 1.08051 14.3625 0.769384ZM17.5125 17.1694C17.0582 17.5761 16.5042 17.8552 15.907 17.9782C15.3097 18.1011 14.6905 18.0636 14.1125 17.8694C11.4932 17.1318 9.22077 15.4884 7.7 13.2319C7.11911 12.4338 6.65213 11.5587 6.3125 10.6319C6.12857 10.0941 6.0954 9.51622 6.21659 8.96093C6.33779 8.40563 6.60872 7.89412 7 7.48188C7.19048 7.23878 7.44976 7.05867 7.74407 6.96503C8.03837 6.87139 8.35406 6.86855 8.65 6.95688C8.9 7.01938 9.075 7.38188 9.3 7.65688C9.4825 8.17313 9.69625 8.67813 9.9375 9.16938C10.1205 9.42002 10.197 9.73288 10.1501 10.0397C10.1033 10.3465 9.93698 10.6223 9.6875 10.8069C9.125 11.3069 9.2125 11.7194 9.6125 12.2819C10.4968 13.5558 11.717 14.5597 13.1375 15.1819C13.5375 15.3569 13.8375 15.3944 14.1 14.9819C14.2125 14.8194 14.3625 14.6819 14.4875 14.5319C15.2125 13.6194 14.9875 13.6319 16.1375 14.1319C16.5037 14.2856 16.8587 14.4656 17.2 14.6694C17.5375 14.8694 18.05 15.0819 18.125 15.3819C18.1972 15.7073 18.1782 16.0464 18.0701 16.3618C17.962 16.6771 17.7691 16.9566 17.5125 17.1694Z" fill="white"/>
</g>
</svg>
